<svg id="Logo" xmlns="http://www.w3.org/2000/svg" xmlns:xlink="http://www.w3.org/1999/xlink" width="133.664" height="23.68" viewBox="0 0 133.664 23.68">
  <defs>
    <linearGradient id="linear-gradient" y1="0.5" x2="1" y2="0.5" gradientUnits="objectBoundingBox">
      <stop offset="0" stop-color="#288fe9"/>
      <stop offset="1" stop-color="#8228e9"/>
    </linearGradient>
  </defs>
  <path id="Path_1" data-name="Path 1" d="M7.744.32a9.9,9.9,0,0,1-3.68-.672A8.1,8.1,0,0,1,1.088-2.4l.736-1.12a9.336,9.336,0,0,0,2.784,1.9,7.846,7.846,0,0,0,3.072.592,6.122,6.122,0,0,0,3.472-.891A2.829,2.829,0,0,0,12.48-4.4a2.192,2.192,0,0,0-.624-1.674,4.574,4.574,0,0,0-1.792-.957Q8.9-7.4,7.232-7.81a23.349,23.349,0,0,1-2.864-.924A4.024,4.024,0,0,1,2.624-9.978a3.369,3.369,0,0,1-.576-2.072,4.309,4.309,0,0,1,.816-2.694,4.868,4.868,0,0,1,2.208-1.594,8.675,8.675,0,0,1,3.088-.526,8.411,8.411,0,0,1,3.408.64,5.309,5.309,0,0,1,2.224,1.7L12.928-13.5a4.765,4.765,0,0,0-2.08-1.52,7.732,7.732,0,0,0-2.816-.5,7.281,7.281,0,0,0-2.176.319,3.509,3.509,0,0,0-1.648,1.036,2.834,2.834,0,0,0-.624,1.928,2.23,2.23,0,0,0,.464,1.5,3.233,3.233,0,0,0,1.392.877q.928.335,2.3.717a33.271,33.271,0,0,1,3.36.988A5.525,5.525,0,0,1,13.28-6.835a3.187,3.187,0,0,1,.768,2.279A4.234,4.234,0,0,1,12.32-.987,7.4,7.4,0,0,1,7.744.32Zm23.9-.992q-.16.064-.64.32a6.2,6.2,0,0,1-1.216.464A5.992,5.992,0,0,1,28.16.32a3.9,3.9,0,0,1-1.616-.338,2.772,2.772,0,0,1-1.2-1.014A2.907,2.907,0,0,1,24.9-2.675V-15.3H22.56v-1.312H24.9v-5.7h1.6v5.7h3.872V-15.3H26.5V-3.053a1.825,1.825,0,0,0,.672,1.4,2.246,2.246,0,0,0,1.408.467A4.128,4.128,0,0,0,30.3-1.52a7.233,7.233,0,0,0,.864-.432ZM48.736-15.2a6.67,6.67,0,0,0-3.92,1.328A6.613,6.613,0,0,0,42.464-10.4V0h-1.6V-16.608H42.4v4.064a7.96,7.96,0,0,1,2.3-2.864,5.919,5.919,0,0,1,3.04-1.264q.32-.032.576-.032h.416ZM56.672-4.784a3.991,3.991,0,0,1,.9-2.6,5.9,5.9,0,0,1,2.464-1.723,9.757,9.757,0,0,1,3.616-.622A16.531,16.531,0,0,1,66.3-9.5a14.351,14.351,0,0,1,2.464.608V-10.46a5.031,5.031,0,0,0-1.328-3.66,4.868,4.868,0,0,0-3.664-1.368,7.267,7.267,0,0,0-2.592.512A13.369,13.369,0,0,0,58.432-13.5l-.672-1.152A15.222,15.222,0,0,1,60.912-16.3a8.7,8.7,0,0,1,3.024-.56,6.306,6.306,0,0,1,4.7,1.753,6.512,6.512,0,0,1,1.728,4.78v8.223a.821.821,0,0,0,.176.573.785.785,0,0,0,.528.223V0a4.487,4.487,0,0,1-.48.032h-.32a1.452,1.452,0,0,1-.944-.512,1.607,1.607,0,0,1-.368-.928V-2.72A7.714,7.714,0,0,1,66-.48a9.271,9.271,0,0,1-3.792.8,5.954,5.954,0,0,1-2.832-.67,5.074,5.074,0,0,1-1.984-1.834A4.844,4.844,0,0,1,56.672-4.784Zm11.456,1.37a3.6,3.6,0,0,0,.48-.8,1.832,1.832,0,0,0,.16-.7v-2.74a12.931,12.931,0,0,0-2.4-.669,14.527,14.527,0,0,0-2.56-.223,7.436,7.436,0,0,0-4.048.988A3.035,3.035,0,0,0,58.208-4.88a3.665,3.665,0,0,0,.544,1.944A4.027,4.027,0,0,0,60.272-1.5a4.572,4.572,0,0,0,2.256.542,7.967,7.967,0,0,0,3.312-.685A5.472,5.472,0,0,0,68.128-3.414ZM86.272,0,79.328-16.608h1.7L87.136-1.693,93.28-16.608h1.6L87.936,0Zm24.672.32a7.776,7.776,0,0,1-3.264-.686,8.064,8.064,0,0,1-2.608-1.881,8.832,8.832,0,0,1-1.728-2.774,8.979,8.979,0,0,1-.624-3.332,8.689,8.689,0,0,1,1.056-4.272,8.324,8.324,0,0,1,2.912-3.076,7.669,7.669,0,0,1,4.16-1.164,7.546,7.546,0,0,1,4.192,1.18,8.641,8.641,0,0,1,2.9,3.109,8.554,8.554,0,0,1,1.072,4.225v.383a1.336,1.336,0,0,1-.032.319H104.384A7.44,7.44,0,0,0,105.44-4.24a6.971,6.971,0,0,0,2.384,2.4,6.063,6.063,0,0,0,3.184.876,6.375,6.375,0,0,0,3.264-.9,4.938,4.938,0,0,0,2.144-2.3l1.408.384a5.677,5.677,0,0,1-1.52,2.112,7.73,7.73,0,0,1-2.432,1.456A8.186,8.186,0,0,1,110.944.32ZM104.32-8.9h13.152a7.562,7.562,0,0,0-1.024-3.439,6.653,6.653,0,0,0-2.352-2.357,6.208,6.208,0,0,0-3.216-.86,6.124,6.124,0,0,0-3.2.86,6.7,6.7,0,0,0-2.336,2.357A7.562,7.562,0,0,0,104.32-8.9ZM129.056-23.36h1.632V-3.18a2.1,2.1,0,0,0,.48,1.593,1.788,1.788,0,0,0,1.248.434,6.073,6.073,0,0,0,1.056-.1,5.2,5.2,0,0,0,.96-.256l.32,1.312a10.01,10.01,0,0,1-1.344.352,7.174,7.174,0,0,1-1.376.16,2.911,2.911,0,0,1-2.16-.821,2.988,2.988,0,0,1-.816-2.2Z" transform="translate(-1.088 23.36)" fill="url(#linear-gradient)"/>
</svg>
